<?xml version="1.0" encoding="UTF-8"?>
<svg id="Layer_1" xmlns="http://www.w3.org/2000/svg" version="1.1" viewBox="0 0 1772.04 1146.78">
  <!-- Generator: Adobe Illustrator 30.6.0, SVG Export Plug-In . SVG Version: 2.1.4 Build 109)  -->
  <defs>
    <style>
      .st0 {
        fill: #2fc4c9;
      }

      .st1 {
        fill: #eaf3ff;
        font-family: CenturyGothic-Bold, 'Century Gothic';
        font-size: 637.91px;
        font-weight: 700;
      }
    </style>
  </defs>
  <g>
    <text class="st1" transform="translate(917.33 764.83)"><tspan x="0" y="0">sla</tspan></text>
    <text class="st1" transform="translate(510.36 764.83)"><tspan x="0" y="0">a</tspan></text>
    <text class="st1" transform="translate(0 764.83)"><tspan x="0" y="0">w</tspan></text>
  </g>
  <g>
    <path class="st0" d="M1354.17,332.94h240v62.3h-240s-3.57-65.87,0-62.3Z"/>
    <polygon class="st0" points="956.52 791.38 1035.33 806.7 1035.33 1016.06 803.45 1146.78 803.45 764.83 888.32 764.83 888.32 1026.27 955.01 989.51 956.52 791.38"/>
    <g>
      <polygon class="st0" points="222.65 336 825.53 336 825.53 127.66 998.25 0 998.25 336 1148.69 336 1148.69 395.23 935.85 395.23 935.85 120.51 886.82 153.19 887.93 395.23 203.71 395.23 222.65 336"/>
      <rect class="st0" x="1148.69" y="336" width="52.85" height="59.23"/>
    </g>
  </g>
</svg>